<?xml version="1.0" standalone="no"?>
<!DOCTYPE svg PUBLIC "-//W3C//DTD SVG 20010904//EN"
 "http://www.w3.org/TR/2001/REC-SVG-20010904/DTD/svg10.dtd">
<svg version="1.0" xmlns="http://www.w3.org/2000/svg"
 width="512.000000pt" height="512.000000pt" viewBox="0 0 512.000000 512.000000"
 preserveAspectRatio="xMidYMid meet">
<metadata>
Created by potrace 1.16, written by Peter Selinger 2001-2019
</metadata>
<g transform="translate(0.000000,512.000000) scale(0.100000,-0.100000)"
fill="#000000" stroke="none">
<path d="M2240 5105 c-389 -48 -766 -188 -1091 -404 -504 -335 -871 -825
-1043 -1395 -41 -132 -81 -333 -96 -468 -13 -125 -13 -431 0 -556 108 -1014
825 -1880 1804 -2176 132 -41 333 -81 468 -96 125 -13 431 -13 556 0 592 63
1141 332 1563 766 289 299 494 645 613 1038 74 243 106 468 106 746 0 209 -10
324 -46 505 -181 920 -867 1676 -1768 1949 -132 41 -333 81 -468 96 -131 14
-469 11 -598 -5z m695 -254 c998 -170 1758 -940 1922 -1946 25 -155 25 -535 0
-690 -166 -1017 -935 -1786 -1952 -1952 -155 -25 -535 -25 -690 0 -1017 166
-1786 935 -1952 1952 -25 155 -25 535 0 690 82 501 307 944 657 1295 386 385
878 616 1435 674 107 11 464 -3 580 -23z"/>
<path d="M2651 3594 c-132 -29 -216 -84 -265 -174 -46 -84 -57 -141 -63 -332
l-6 -178 -113 0 -114 0 0 -175 0 -175 115 0 115 0 0 -525 0 -525 240 0 240 0
0 525 0 525 154 0 153 0 17 153 c9 83 19 162 22 175 l4 22 -175 0 -175 0 0
129 c0 71 4 141 10 156 16 43 63 55 210 55 l130 0 0 180 0 180 -217 -1 c-147
-1 -239 -6 -282 -15z"/>
</g>
</svg>
