<?xml version="1.0" standalone="no"?>
<!DOCTYPE svg PUBLIC "-//W3C//DTD SVG 20010904//EN"
 "http://www.w3.org/TR/2001/REC-SVG-20010904/DTD/svg10.dtd">
<svg version="1.0" xmlns="http://www.w3.org/2000/svg"
 width="512.000000pt" height="512.000000pt" viewBox="0 0 512.000000 512.000000"
 preserveAspectRatio="xMidYMid meet">
<metadata>
Created by potrace 1.16, written by Peter Selinger 2001-2019
</metadata>
<g transform="translate(0.000000,512.000000) scale(0.100000,-0.100000)"
fill="#000000" stroke="none">
<path d="M2240 5105 c-389 -48 -766 -188 -1091 -404 -504 -335 -871 -825
-1043 -1395 -41 -132 -81 -333 -96 -468 -13 -125 -13 -431 0 -556 108 -1014
825 -1880 1804 -2176 132 -41 333 -81 468 -96 125 -13 431 -13 556 0 592 63
1141 332 1563 766 289 299 494 645 613 1038 74 243 106 468 106 746 0 209 -10
324 -46 505 -181 920 -867 1676 -1768 1949 -132 41 -333 81 -468 96 -131 14
-469 11 -598 -5z m695 -254 c998 -170 1758 -940 1922 -1946 25 -155 25 -535 0
-690 -166 -1017 -935 -1786 -1952 -1952 -155 -25 -535 -25 -690 0 -1017 166
-1786 935 -1952 1952 -25 155 -25 535 0 690 82 501 307 944 657 1295 386 385
878 616 1435 674 107 11 464 -3 580 -23z"/>
<path d="M2980 3471 c-86 -28 -136 -57 -193 -115 -98 -98 -141 -200 -141 -343
l-1 -92 -45 5 c-256 28 -485 117 -686 265 -33 23 -99 82 -149 131 -49 48 -91
88 -92 88 -1 0 -11 -17 -22 -38 -86 -168 -43 -403 98 -536 33 -30 44 -46 33
-46 -15 0 -120 35 -166 55 -17 8 -18 4 -11 -56 10 -88 48 -183 98 -248 49 -64
148 -135 215 -155 l47 -14 -38 -7 c-22 -4 -66 -5 -98 -2 -37 3 -59 1 -59 -5 0
-27 71 -138 117 -184 62 -63 176 -122 251 -131 28 -3 52 -9 52 -14 0 -11 -107
-74 -182 -108 -122 -54 -220 -75 -365 -75 -73 -1 -133 -4 -133 -8 0 -11 193
-105 282 -136 275 -97 618 -101 898 -10 415 134 752 487 872 912 26 95 48 246
48 336 l0 75 73 66 c73 66 164 175 155 185 -3 2 -39 -6 -80 -20 -40 -14 -92
-28 -115 -32 l-41 -6 62 63 c55 57 126 173 113 185 -2 3 -35 -11 -73 -30 -66
-32 -191 -76 -220 -76 -7 0 -28 13 -46 28 -119 101 -311 141 -458 93z"/>
</g>
</svg>
